<svg width="24" height="25" viewBox="0 0 24 25" fill="none" xmlns="http://www.w3.org/2000/svg">
<path d="M8.47502 16.5544C6.4833 17.0908 4.52539 15.5904 4.52539 13.5277L4.52539 11.8181C4.52539 9.75537 6.4833 8.25498 8.47502 8.79136C8.49754 8.79742 8.52152 8.79479 8.54218 8.78399L13.3814 6.25522C14.1164 5.87112 14.9726 6.49718 14.8295 7.31408L14.034 11.8547C13.9554 12.303 13.954 12.7614 14.0296 13.2102L14.845 18.0455C14.9824 18.8604 14.1282 19.4808 13.3958 19.0981L8.54218 16.5618C8.52152 16.551 8.49754 16.5483 8.47502 16.5544Z" fill="#1F2937"/>
<path d="M18.2656 7.14808L19.4013 6.54199" stroke="#1F2937" stroke-width="2" stroke-linecap="round"/>
<path d="M18.085 18.1976L19.2206 18.8037" stroke="#1F2937" stroke-width="2" stroke-linecap="round"/>
<path d="M18.1912 12.6264L19.4751 12.7197" stroke="#1F2937" stroke-width="2" stroke-linecap="round"/>
</svg>
